<?xml version="1.0" encoding="UTF-8" standalone="no"?>
<!-- Generated by Pixelmator Pro 3.6.18 -->

<svg
   width="484.87381"
   height="486.94574"
   viewBox="0 0 484.87381 486.94574"
   version="1.1"
   id="svg1"
   sodipodi:docname="regression.svg"
   inkscape:version="1.4.2 (ebf0e940, 2026-05-08)"
   xmlns:inkscape="http://www.inkscape.org/namespaces/inkscape"
   xmlns:sodipodi="http://sodipodi.sourceforge.net/DTD/sodipodi-0.dtd"
   xmlns="http://www.w3.org/2000/svg"
   xmlns:svg="http://www.w3.org/2000/svg">
  <defs
     id="defs1" />
  <sodipodi:namedview
     id="namedview1"
     pagecolor="#ffffff"
     bordercolor="#666666"
     borderopacity="1.0"
     inkscape:showpageshadow="2"
     inkscape:pageopacity="0.0"
     inkscape:pagecheckerboard="0"
     inkscape:deskcolor="#d1d1d1"
     showgrid="false"
     inkscape:zoom="1.4252101"
     inkscape:cx="290.48349"
     inkscape:cy="189.44575"
     inkscape:window-width="1792"
     inkscape:window-height="1067"
     inkscape:window-x="0"
     inkscape:window-y="25"
     inkscape:window-maximized="0"
     inkscape:current-layer="svg1" />
  <path
     id="Rectangle"
     fill="none"
     stroke="#08285e"
     stroke-width="10"
     stroke-linecap="round"
     stroke-linejoin="round"
     d="M 5,5 V 481.94575 H 479.87382"
     sodipodi:nodetypes="ccc"
     inkscape:label="axes" />
  <g
     id="samples"
     transform="translate(-15,-0.0542453)">
    <path
       id="Oval-copy"
       fill="#00a3b4"
       fill-rule="evenodd"
       stroke="none"
       d="m 337,281.5 c 0,-7.45584 -6.04416,-13.5 -13.5,-13.5 -7.45584,0 -13.5,6.04416 -13.5,13.5 0,7.45584 6.04416,13.5 13.5,13.5 7.45584,0 13.5,-6.04416 13.5,-13.5 z" />
    <path
       id="Oval-copy-2"
       fill="#00a3b4"
       fill-rule="evenodd"
       stroke="none"
       d="m 224,234.5 c 0,-7.45584 -6.04416,-13.5 -13.5,-13.5 -7.45584,0 -13.5,6.04416 -13.5,13.5 0,7.45584 6.04416,13.5 13.5,13.5 7.45584,0 13.5,-6.04416 13.5,-13.5 z" />
    <path
       id="Oval-copy-3"
       fill="#00a3b4"
       fill-rule="evenodd"
       stroke="none"
       d="m 177,393.5 c 0,-7.45584 -6.04416,-13.5 -13.5,-13.5 -7.45584,0 -13.5,6.04416 -13.5,13.5 0,7.45584 6.04416,13.5 13.5,13.5 7.45584,0 13.5,-6.04416 13.5,-13.5 z" />
    <path
       id="Oval-copy-4"
       fill="#00a3b4"
       fill-rule="evenodd"
       stroke="none"
       d="m 238,173.5 c 0,-7.45584 -6.04416,-13.5 -13.5,-13.5 -7.45584,0 -13.5,6.04416 -13.5,13.5 0,7.45584 6.04416,13.5 13.5,13.5 7.45584,0 13.5,-6.04416 13.5,-13.5 z" />
    <path
       id="Oval-copy-5"
       fill="#00a3b4"
       fill-rule="evenodd"
       stroke="none"
       d="m 304,321.5 c 0,-7.45584 -6.04416,-13.5 -13.5,-13.5 -7.45584,0 -13.5,6.04416 -13.5,13.5 0,7.45584 6.04416,13.5 13.5,13.5 7.45584,0 13.5,-6.04416 13.5,-13.5 z" />
    <path
       id="Oval-copy-6"
       fill="#00a3b4"
       fill-rule="evenodd"
       stroke="none"
       d="m 334,218.5 c 0,-7.45584 -6.04416,-13.5 -13.5,-13.5 -7.45584,0 -13.5,6.04416 -13.5,13.5 0,7.45584 6.04416,13.5 13.5,13.5 7.45584,0 13.5,-6.04416 13.5,-13.5 z" />
    <path
       id="Oval-copy-7"
       fill="#00a3b4"
       fill-rule="evenodd"
       stroke="none"
       d="M 106,399.5 C 106,392.04416 99.955841,386 92.5,386 85.044159,386 79,392.04416 79,399.5 c 0,7.45584 6.044159,13.5 13.5,13.5 7.455841,0 13.5,-6.04416 13.5,-13.5 z" />
    <path
       id="Oval-copy-8"
       fill="#00a3b4"
       fill-rule="evenodd"
       stroke="none"
       d="m 280,159.5 c 0,-7.45584 -6.04416,-13.5 -13.5,-13.5 -7.45584,0 -13.5,6.04416 -13.5,13.5 0,7.45584 6.04416,13.5 13.5,13.5 7.45584,0 13.5,-6.04416 13.5,-13.5 z" />
    <path
       id="Oval-copy-9"
       fill="#00a3b4"
       fill-rule="evenodd"
       stroke="none"
       d="M 441,73.5 C 441,66.044159 434.95584,60 427.5,60 420.04416,60 414,66.044159 414,73.5 c 0,7.455841 6.04416,13.5 13.5,13.5 7.45584,0 13.5,-6.044159 13.5,-13.5 z" />
    <path
       id="Oval-copy-10"
       fill="#00a3b4"
       fill-rule="evenodd"
       stroke="none"
       d="m 398,159.5 c 0,-7.45584 -6.04416,-13.5 -13.5,-13.5 -7.45584,0 -13.5,6.04416 -13.5,13.5 0,7.45584 6.04416,13.5 13.5,13.5 7.45584,0 13.5,-6.04416 13.5,-13.5 z" />
    <path
       id="Oval-copy-11"
       fill="#00a3b4"
       fill-rule="evenodd"
       stroke="none"
       d="m 146,310.5 c 0,-7.45584 -6.04416,-13.5 -13.5,-13.5 -7.45584,0 -13.5,6.04416 -13.5,13.5 0,7.45584 6.04416,13.5 13.5,13.5 7.45584,0 13.5,-6.04416 13.5,-13.5 z" />
    <path
       id="Oval-copy-12"
       fill="#00a3b4"
       fill-rule="evenodd"
       stroke="none"
       d="M 304,100.5 C 304,93.044159 297.95584,87 290.5,87 c -7.45584,0 -13.5,6.044159 -13.5,13.5 0,7.45584 6.04416,13.5 13.5,13.5 7.45584,0 13.5,-6.04416 13.5,-13.5 z" />
    <path
       id="Oval-copy-13"
       fill="#00a3b4"
       fill-rule="evenodd"
       stroke="none"
       d="m 217,308.5 c 0,-7.45584 -6.04416,-13.5 -13.5,-13.5 -7.45584,0 -13.5,6.04416 -13.5,13.5 0,7.45584 6.04416,13.5 13.5,13.5 7.45584,0 13.5,-6.04416 13.5,-13.5 z" />
    <path
       id="Oval-copy-14"
       fill="#00a3b4"
       fill-rule="evenodd"
       stroke="none"
       d="m 250,393.5 c 0,-7.45584 -6.04416,-13.5 -13.5,-13.5 -7.45584,0 -13.5,6.04416 -13.5,13.5 0,7.45584 6.04416,13.5 13.5,13.5 7.45584,0 13.5,-6.04416 13.5,-13.5 z" />
    <path
       id="Oval-copy-15"
       fill="#00a3b4"
       fill-rule="evenodd"
       stroke="none"
       d="m 265,297.5 c 0,-7.45584 -6.04416,-13.5 -13.5,-13.5 -7.45584,0 -13.5,6.04416 -13.5,13.5 0,7.45584 6.04416,13.5 13.5,13.5 7.45584,0 13.5,-6.04416 13.5,-13.5 z" />
    <path
       id="Oval-copy-16"
       fill="#00a3b4"
       fill-rule="evenodd"
       stroke="none"
       d="m 277,232.5 c 0,-7.45584 -6.04416,-13.5 -13.5,-13.5 -7.45584,0 -13.5,6.04416 -13.5,13.5 0,7.45584 6.04416,13.5 13.5,13.5 7.45584,0 13.5,-6.04416 13.5,-13.5 z" />
    <path
       id="Oval-copy-17"
       fill="#00a3b4"
       fill-rule="evenodd"
       stroke="none"
       d="M 106,449.5 C 106,442.04416 99.955841,436 92.5,436 85.044159,436 79,442.04416 79,449.5 c 0,7.45584 6.044159,13.5 13.5,13.5 7.455841,0 13.5,-6.04416 13.5,-13.5 z" />
    <path
       id="Oval-copy-18"
       fill="#00a3b4"
       fill-rule="evenodd"
       stroke="none"
       d="m 351,146.5 c 0,-7.45584 -6.04416,-13.5 -13.5,-13.5 -7.45584,0 -13.5,6.04416 -13.5,13.5 0,7.45584 6.04416,13.5 13.5,13.5 7.45584,0 13.5,-6.04416 13.5,-13.5 z" />
    <path
       id="Oval-copy-19"
       fill="#00a3b4"
       fill-rule="evenodd"
       stroke="none"
       d="M 409,100.5 C 409,93.044159 402.95584,87 395.5,87 c -7.45584,0 -13.5,6.044159 -13.5,13.5 0,7.45584 6.04416,13.5 13.5,13.5 7.45584,0 13.5,-6.04416 13.5,-13.5 z" />
    <path
       id="Oval-copy-20"
       fill="#00a3b4"
       fill-rule="evenodd"
       stroke="none"
       d="M 371,33.5 C 371,26.044159 364.95584,20 357.5,20 350.04416,20 344,26.044159 344,33.5 c 0,7.455841 6.04416,13.5 13.5,13.5 7.45584,0 13.5,-6.044159 13.5,-13.5 z" />
  </g>
  <path
     id="model"
     fill="none"
     stroke="#dd7612"
     stroke-width="10"
     stroke-linecap="round"
     stroke-linejoin="round"
     d="m 425,51.945755 c -15.17969,3.881897 -71.17203,6.793427 -120,84.999995 -65.64288,105.13861 -60.59283,154.09271 -131,217 -58.68329,52.43225 -130,63 -130,63" />
</svg>
